<mxfile host="app.diagrams.net" modified="2024-04-11T13:36:33.931Z" agent="Mozilla/5.0 (Windows NT 10.0; Win64; x64) AppleWebKit/537.36 (KHTML, like Gecko) Chrome/120.0.0.0 YaBrowser/24.1.0.0 Safari/537.36" etag="zqBNcXADqgftS09QxN4L" version="24.2.3" type="device">
  <diagram name="Страница — 1" id="0ZQkw_P5MrqCfFyCVLm2">
    <mxGraphModel dx="6563" dy="3132" grid="1" gridSize="10" guides="1" tooltips="1" connect="1" arrows="1" fold="1" page="1" pageScale="1" pageWidth="827" pageHeight="1169" math="0" shadow="0">
      <root>
        <mxCell id="0" />
        <mxCell id="1" parent="0" />
        <mxCell id="wgkthjZ_Jnqaw7kV-zS_-20" value="СотрудникиКоманды" style="swimlane;fontStyle=0;childLayout=stackLayout;horizontal=1;startSize=30;fillColor=none;horizontalStack=0;resizeParent=1;resizeParentMax=0;resizeLast=0;collapsible=1;marginBottom=0;whiteSpace=wrap;html=1;" parent="1" vertex="1">
          <mxGeometry x="-310" y="800" width="190" height="160" as="geometry" />
        </mxCell>
        <mxCell id="wgkthjZ_Jnqaw7kV-zS_-21" value="+ ОкончаниеКонтракта: дата&lt;div&gt;+ Возраст: число&lt;br&gt;&lt;/div&gt;&lt;div&gt;+&amp;nbsp;&lt;span style=&quot;background-color: initial;&quot;&gt;Должность: строка&lt;/span&gt;&lt;/div&gt;&lt;div&gt;&lt;span style=&quot;background-color: initial;&quot;&gt;+ Адрес: строка&lt;/span&gt;&lt;/div&gt;&lt;div&gt;&lt;span style=&quot;background-color: initial;&quot;&gt;+ Телефон: строка&lt;/span&gt;&lt;/div&gt;" style="text;strokeColor=none;fillColor=none;align=left;verticalAlign=top;spacingLeft=4;spacingRight=4;overflow=hidden;rotatable=0;points=[[0,0.5],[1,0.5]];portConstraint=eastwest;whiteSpace=wrap;html=1;" parent="wgkthjZ_Jnqaw7kV-zS_-20" vertex="1">
          <mxGeometry y="30" width="190" height="90" as="geometry" />
        </mxCell>
        <mxCell id="wgkthjZ_Jnqaw7kV-zS_-46" value="" style="endArrow=none;html=1;rounded=0;entryX=1;entryY=0;entryDx=0;entryDy=0;" parent="wgkthjZ_Jnqaw7kV-zS_-20" target="wgkthjZ_Jnqaw7kV-zS_-45" edge="1">
          <mxGeometry relative="1" as="geometry">
            <mxPoint y="120" as="sourcePoint" />
            <mxPoint x="160" y="120" as="targetPoint" />
          </mxGeometry>
        </mxCell>
        <mxCell id="wgkthjZ_Jnqaw7kV-zS_-45" value="+ Добавить()&lt;div&gt;+ Удалить()&lt;/div&gt;" style="text;html=1;align=left;verticalAlign=middle;whiteSpace=wrap;rounded=0;" parent="wgkthjZ_Jnqaw7kV-zS_-20" vertex="1">
          <mxGeometry y="120" width="190" height="40" as="geometry" />
        </mxCell>
        <mxCell id="wgkthjZ_Jnqaw7kV-zS_-22" value="Игроки" style="swimlane;fontStyle=0;childLayout=stackLayout;horizontal=1;startSize=30;fillColor=none;horizontalStack=0;resizeParent=1;resizeParentMax=0;resizeLast=0;collapsible=1;marginBottom=0;whiteSpace=wrap;html=1;" parent="1" vertex="1">
          <mxGeometry x="-780" y="60" width="190" height="310" as="geometry" />
        </mxCell>
        <mxCell id="wgkthjZ_Jnqaw7kV-zS_-23" value="+ ХватРуки: строка&lt;div&gt;&lt;span style=&quot;background-color: initial;&quot;&gt;+ ОкончаниеКонтракта: дата&lt;/span&gt;&lt;br&gt;&lt;/div&gt;&lt;div&gt;&lt;span style=&quot;background-color: initial;&quot;&gt;+ Дата рождения: дата&lt;/span&gt;&lt;br&gt;&lt;/div&gt;&lt;div&gt;&lt;span style=&quot;background-color: initial;&quot;&gt;+ СостояниеЗдоровья: строка&lt;/span&gt;&lt;/div&gt;&lt;div&gt;&lt;span style=&quot;background-color: initial;&quot;&gt;+ Гражданство: строка&lt;/span&gt;&lt;/div&gt;&lt;div&gt;&lt;span style=&quot;background-color: initial;&quot;&gt;+ Рост: число&lt;/span&gt;&lt;/div&gt;&lt;div&gt;&lt;span style=&quot;background-color: initial;&quot;&gt;+ Вес: число&lt;/span&gt;&lt;/div&gt;&lt;div&gt;&lt;span style=&quot;background-color: initial;&quot;&gt;+ ХоккейнаяШкола: строка&lt;/span&gt;&lt;/div&gt;&lt;div&gt;&lt;span style=&quot;background-color: initial;&quot;&gt;+ ПрошлыйКлуб: строка&lt;/span&gt;&lt;/div&gt;&lt;div&gt;&lt;span style=&quot;background-color: initial;&quot;&gt;+ ВКоманде: строка&lt;/span&gt;&lt;/div&gt;&lt;div&gt;&lt;span style=&quot;background-color: initial;&quot;&gt;+ ПозицияНаПоле: строка&lt;/span&gt;&lt;/div&gt;&lt;div&gt;&lt;span style=&quot;background-color: initial;&quot;&gt;&lt;br&gt;&lt;/span&gt;&lt;/div&gt;&lt;div&gt;&lt;span style=&quot;background-color: initial;&quot;&gt;&amp;nbsp;&lt;/span&gt;&lt;/div&gt;" style="text;strokeColor=none;fillColor=none;align=left;verticalAlign=top;spacingLeft=4;spacingRight=4;overflow=hidden;rotatable=0;points=[[0,0.5],[1,0.5]];portConstraint=eastwest;whiteSpace=wrap;html=1;" parent="wgkthjZ_Jnqaw7kV-zS_-22" vertex="1">
          <mxGeometry y="30" width="190" height="240" as="geometry" />
        </mxCell>
        <mxCell id="wgkthjZ_Jnqaw7kV-zS_-33" value="" style="endArrow=none;html=1;rounded=0;" parent="wgkthjZ_Jnqaw7kV-zS_-22" edge="1">
          <mxGeometry relative="1" as="geometry">
            <mxPoint y="269.39" as="sourcePoint" />
            <mxPoint x="190" y="269.39" as="targetPoint" />
            <Array as="points">
              <mxPoint x="190" y="269.39" />
            </Array>
          </mxGeometry>
        </mxCell>
        <mxCell id="wgkthjZ_Jnqaw7kV-zS_-35" value="+ Добавить()&lt;div&gt;+ Удалить()&lt;/div&gt;" style="text;html=1;align=left;verticalAlign=middle;whiteSpace=wrap;rounded=0;" parent="wgkthjZ_Jnqaw7kV-zS_-22" vertex="1">
          <mxGeometry y="270" width="190" height="40" as="geometry" />
        </mxCell>
        <mxCell id="wgkthjZ_Jnqaw7kV-zS_-39" value="Стадион" style="swimlane;fontStyle=0;childLayout=stackLayout;horizontal=1;startSize=30;fillColor=none;horizontalStack=0;resizeParent=1;resizeParentMax=0;resizeLast=0;collapsible=1;marginBottom=0;whiteSpace=wrap;html=1;" parent="1" vertex="1">
          <mxGeometry x="-800" y="620" width="250" height="160" as="geometry" />
        </mxCell>
        <mxCell id="wgkthjZ_Jnqaw7kV-zS_-40" value="+ КоличествоМест: число&lt;div&gt;+ СостояниеЛьда: строка&lt;br&gt;&lt;/div&gt;&lt;div&gt;+&amp;nbsp;&lt;span style=&quot;background-color: initial;&quot;&gt;КоличествоЗаливочныхМашин: число&lt;/span&gt;&lt;/div&gt;&lt;div&gt;&lt;span style=&quot;background-color: initial;&quot;&gt;+&amp;nbsp;&lt;/span&gt;КоличествоСпортивныхЗалов&lt;span style=&quot;background-color: initial;&quot;&gt;: число&lt;/span&gt;&lt;/div&gt;&lt;div&gt;&lt;span style=&quot;background-color: initial;&quot;&gt;+ Адрес: строка&lt;/span&gt;&lt;/div&gt;" style="text;strokeColor=none;fillColor=none;align=left;verticalAlign=top;spacingLeft=4;spacingRight=4;overflow=hidden;rotatable=0;points=[[0,0.5],[1,0.5]];portConstraint=eastwest;whiteSpace=wrap;html=1;" parent="wgkthjZ_Jnqaw7kV-zS_-39" vertex="1">
          <mxGeometry y="30" width="250" height="90" as="geometry" />
        </mxCell>
        <mxCell id="wgkthjZ_Jnqaw7kV-zS_-44" value="" style="endArrow=none;html=1;rounded=0;" parent="wgkthjZ_Jnqaw7kV-zS_-39" edge="1">
          <mxGeometry relative="1" as="geometry">
            <mxPoint y="119.58" as="sourcePoint" />
            <mxPoint x="247" y="119.58" as="targetPoint" />
          </mxGeometry>
        </mxCell>
        <mxCell id="wgkthjZ_Jnqaw7kV-zS_-42" value="+ Добавить()&lt;div&gt;+ Удалить()&lt;/div&gt;" style="text;html=1;align=left;verticalAlign=middle;whiteSpace=wrap;rounded=0;" parent="wgkthjZ_Jnqaw7kV-zS_-39" vertex="1">
          <mxGeometry y="120" width="250" height="40" as="geometry" />
        </mxCell>
        <mxCell id="wgkthjZ_Jnqaw7kV-zS_-48" value="Расписание" style="swimlane;fontStyle=0;childLayout=stackLayout;horizontal=1;startSize=30;fillColor=none;horizontalStack=0;resizeParent=1;resizeParentMax=0;resizeLast=0;collapsible=1;marginBottom=0;whiteSpace=wrap;html=1;" parent="1" vertex="1">
          <mxGeometry x="-535" y="270" width="180" height="120" as="geometry" />
        </mxCell>
        <mxCell id="wgkthjZ_Jnqaw7kV-zS_-49" value="+ Тренер: строка&lt;div&gt;+ Событие: строка&lt;/div&gt;&lt;div&gt;+ ДатаСобытия: дата и время&lt;/div&gt;" style="text;strokeColor=none;fillColor=none;align=left;verticalAlign=top;spacingLeft=4;spacingRight=4;overflow=hidden;rotatable=0;points=[[0,0.5],[1,0.5]];portConstraint=eastwest;whiteSpace=wrap;html=1;" parent="wgkthjZ_Jnqaw7kV-zS_-48" vertex="1">
          <mxGeometry y="30" width="180" height="50" as="geometry" />
        </mxCell>
        <mxCell id="wgkthjZ_Jnqaw7kV-zS_-50" value="" style="endArrow=none;html=1;rounded=0;" parent="wgkthjZ_Jnqaw7kV-zS_-48" edge="1">
          <mxGeometry relative="1" as="geometry">
            <mxPoint y="79.99999999999999" as="sourcePoint" />
            <mxPoint x="180" y="80" as="targetPoint" />
          </mxGeometry>
        </mxCell>
        <mxCell id="wgkthjZ_Jnqaw7kV-zS_-51" value="+ Добавить()&lt;div&gt;+ Удалить()&lt;/div&gt;" style="text;html=1;align=left;verticalAlign=middle;whiteSpace=wrap;rounded=0;" parent="wgkthjZ_Jnqaw7kV-zS_-48" vertex="1">
          <mxGeometry y="80" width="180" height="40" as="geometry" />
        </mxCell>
        <mxCell id="wgkthjZ_Jnqaw7kV-zS_-52" value="СотрудникиСтадиона" style="swimlane;fontStyle=0;childLayout=stackLayout;horizontal=1;startSize=30;fillColor=none;horizontalStack=0;resizeParent=1;resizeParentMax=0;resizeLast=0;collapsible=1;marginBottom=0;whiteSpace=wrap;html=1;" parent="1" vertex="1">
          <mxGeometry x="-530" y="620" width="190" height="190" as="geometry" />
        </mxCell>
        <mxCell id="wgkthjZ_Jnqaw7kV-zS_-53" value="+ ДатаРождения: дата&lt;div&gt;&lt;span style=&quot;background-color: initial;&quot;&gt;+&amp;nbsp;&lt;/span&gt;&lt;span style=&quot;background-color: initial;&quot;&gt;Должность: строка&lt;/span&gt;&lt;br&gt;&lt;/div&gt;&lt;div&gt;&lt;span style=&quot;background-color: initial;&quot;&gt;+ НаБольничном: строка&lt;/span&gt;&lt;/div&gt;&lt;div&gt;&lt;span style=&quot;background-color: initial;&quot;&gt;+ Телефон: строка&lt;/span&gt;&lt;/div&gt;&lt;div&gt;&lt;span style=&quot;background-color: initial;&quot;&gt;+ Адрес: строка&lt;/span&gt;&lt;/div&gt;&lt;div&gt;&lt;span style=&quot;background-color: initial;&quot;&gt;+ Паспортные данные: строка&lt;/span&gt;&lt;/div&gt;" style="text;strokeColor=none;fillColor=none;align=left;verticalAlign=top;spacingLeft=4;spacingRight=4;overflow=hidden;rotatable=0;points=[[0,0.5],[1,0.5]];portConstraint=eastwest;whiteSpace=wrap;html=1;" parent="wgkthjZ_Jnqaw7kV-zS_-52" vertex="1">
          <mxGeometry y="30" width="190" height="120" as="geometry" />
        </mxCell>
        <mxCell id="wgkthjZ_Jnqaw7kV-zS_-54" value="" style="endArrow=none;html=1;rounded=0;entryX=1;entryY=0;entryDx=0;entryDy=0;exitX=0.002;exitY=1.001;exitDx=0;exitDy=0;exitPerimeter=0;" parent="wgkthjZ_Jnqaw7kV-zS_-52" source="wgkthjZ_Jnqaw7kV-zS_-53" target="wgkthjZ_Jnqaw7kV-zS_-55" edge="1">
          <mxGeometry relative="1" as="geometry">
            <mxPoint y="120" as="sourcePoint" />
            <mxPoint x="160" y="120" as="targetPoint" />
          </mxGeometry>
        </mxCell>
        <mxCell id="wgkthjZ_Jnqaw7kV-zS_-55" value="+ Добавить()&lt;div&gt;+ Удалить()&lt;/div&gt;" style="text;html=1;align=left;verticalAlign=middle;whiteSpace=wrap;rounded=0;" parent="wgkthjZ_Jnqaw7kV-zS_-52" vertex="1">
          <mxGeometry y="150" width="190" height="40" as="geometry" />
        </mxCell>
        <mxCell id="wgkthjZ_Jnqaw7kV-zS_-56" value="Контракты_игроков" style="swimlane;fontStyle=0;childLayout=stackLayout;horizontal=1;startSize=30;fillColor=none;horizontalStack=0;resizeParent=1;resizeParentMax=0;resizeLast=0;collapsible=1;marginBottom=0;whiteSpace=wrap;html=1;" parent="1" vertex="1">
          <mxGeometry x="-790" y="415" width="200" height="170" as="geometry" />
        </mxCell>
        <mxCell id="wgkthjZ_Jnqaw7kV-zS_-57" value="+ ГенеральныйМенеджер: строка&lt;div&gt;+ Игрок: строка&lt;br&gt;&lt;/div&gt;&lt;div&gt;+&amp;nbsp;&lt;span style=&quot;background-color: initial;&quot;&gt;Зароботная_плата: число&lt;/span&gt;&lt;/div&gt;&lt;div&gt;&lt;span style=&quot;background-color: initial;&quot;&gt;+ Дата_Окончания: дата&lt;/span&gt;&lt;br&gt;&lt;/div&gt;&lt;div&gt;&lt;span style=&quot;background-color: initial;&quot;&gt;+ Дата_Подписание: дата&lt;/span&gt;&lt;/div&gt;" style="text;strokeColor=none;fillColor=none;align=left;verticalAlign=top;spacingLeft=4;spacingRight=4;overflow=hidden;rotatable=0;points=[[0,0.5],[1,0.5]];portConstraint=eastwest;whiteSpace=wrap;html=1;" parent="wgkthjZ_Jnqaw7kV-zS_-56" vertex="1">
          <mxGeometry y="30" width="200" height="100" as="geometry" />
        </mxCell>
        <mxCell id="wgkthjZ_Jnqaw7kV-zS_-58" value="" style="endArrow=none;html=1;rounded=0;" parent="wgkthjZ_Jnqaw7kV-zS_-56" edge="1">
          <mxGeometry relative="1" as="geometry">
            <mxPoint y="129.41" as="sourcePoint" />
            <mxPoint x="200" y="129.41" as="targetPoint" />
            <Array as="points">
              <mxPoint x="100" y="129.41" />
            </Array>
          </mxGeometry>
        </mxCell>
        <mxCell id="wgkthjZ_Jnqaw7kV-zS_-59" value="+ Добавить()&lt;div&gt;+ Удалить()&lt;/div&gt;" style="text;html=1;align=left;verticalAlign=middle;whiteSpace=wrap;rounded=0;" parent="wgkthjZ_Jnqaw7kV-zS_-56" vertex="1">
          <mxGeometry y="130" width="200" height="40" as="geometry" />
        </mxCell>
        <mxCell id="wgkthjZ_Jnqaw7kV-zS_-61" value="Инвентаризация" style="swimlane;fontStyle=0;childLayout=stackLayout;horizontal=1;startSize=30;fillColor=none;horizontalStack=0;resizeParent=1;resizeParentMax=0;resizeLast=0;collapsible=1;marginBottom=0;whiteSpace=wrap;html=1;" parent="1" vertex="1">
          <mxGeometry x="-545" y="49.999999999999986" width="200" height="180" as="geometry" />
        </mxCell>
        <mxCell id="wgkthjZ_Jnqaw7kV-zS_-62" value="+ Тренер: строка&lt;div&gt;+ Склад: строка&lt;br&gt;&lt;div&gt;+ Сумма: число&lt;br&gt;&lt;/div&gt;&lt;div&gt;+&amp;nbsp;&lt;span style=&quot;background-color: initial;&quot;&gt;Категория: строка&lt;/span&gt;&lt;/div&gt;&lt;div&gt;&lt;span style=&quot;background-color: initial;&quot;&gt;+ Наименование: строка&lt;/span&gt;&lt;/div&gt;&lt;div&gt;&lt;span style=&quot;background-color: initial;&quot;&gt;+ Количество: число&lt;/span&gt;&lt;/div&gt;&lt;div&gt;&lt;span style=&quot;background-color: initial;&quot;&gt;+ Характеристика: строка&lt;/span&gt;&lt;/div&gt;&lt;/div&gt;" style="text;strokeColor=none;fillColor=none;align=left;verticalAlign=top;spacingLeft=4;spacingRight=4;overflow=hidden;rotatable=0;points=[[0,0.5],[1,0.5]];portConstraint=eastwest;whiteSpace=wrap;html=1;" parent="wgkthjZ_Jnqaw7kV-zS_-61" vertex="1">
          <mxGeometry y="30" width="200" height="110" as="geometry" />
        </mxCell>
        <mxCell id="wgkthjZ_Jnqaw7kV-zS_-63" value="" style="endArrow=none;html=1;rounded=0;" parent="wgkthjZ_Jnqaw7kV-zS_-61" edge="1">
          <mxGeometry relative="1" as="geometry">
            <mxPoint y="140" as="sourcePoint" />
            <mxPoint x="200" y="140" as="targetPoint" />
            <Array as="points">
              <mxPoint x="100" y="140" />
            </Array>
          </mxGeometry>
        </mxCell>
        <mxCell id="wgkthjZ_Jnqaw7kV-zS_-64" value="+ Добавить()&lt;div&gt;+ Удалить()&lt;/div&gt;" style="text;html=1;align=left;verticalAlign=middle;whiteSpace=wrap;rounded=0;" parent="wgkthjZ_Jnqaw7kV-zS_-61" vertex="1">
          <mxGeometry y="140" width="200" height="40" as="geometry" />
        </mxCell>
        <mxCell id="wgkthjZ_Jnqaw7kV-zS_-65" value="Заработаная_плата_сотрудников" style="swimlane;fontStyle=0;childLayout=stackLayout;horizontal=1;startSize=30;fillColor=none;horizontalStack=0;resizeParent=1;resizeParentMax=0;resizeLast=0;collapsible=1;marginBottom=0;whiteSpace=wrap;html=1;" parent="1" vertex="1">
          <mxGeometry x="-290" y="600" width="200" height="130" as="geometry" />
        </mxCell>
        <mxCell id="wgkthjZ_Jnqaw7kV-zS_-66" value="&lt;div&gt;+ ГенеральныйДиректор: строка&lt;/div&gt;+ Должность: строка&lt;div&gt;+ Сумма: число&lt;/div&gt;&lt;div&gt;&lt;span style=&quot;background-color: initial;&quot;&gt;+ Наименование: строка&lt;/span&gt;&lt;/div&gt;" style="text;strokeColor=none;fillColor=none;align=left;verticalAlign=top;spacingLeft=4;spacingRight=4;overflow=hidden;rotatable=0;points=[[0,0.5],[1,0.5]];portConstraint=eastwest;whiteSpace=wrap;html=1;" parent="wgkthjZ_Jnqaw7kV-zS_-65" vertex="1">
          <mxGeometry y="30" width="200" height="70" as="geometry" />
        </mxCell>
        <mxCell id="wgkthjZ_Jnqaw7kV-zS_-67" value="" style="endArrow=none;html=1;rounded=0;" parent="wgkthjZ_Jnqaw7kV-zS_-65" edge="1">
          <mxGeometry relative="1" as="geometry">
            <mxPoint y="100" as="sourcePoint" />
            <mxPoint x="200" y="100" as="targetPoint" />
            <Array as="points">
              <mxPoint x="100" y="100" />
            </Array>
          </mxGeometry>
        </mxCell>
        <mxCell id="wgkthjZ_Jnqaw7kV-zS_-68" value="+ Добавить()&lt;div&gt;+ Удалить()&lt;/div&gt;" style="text;html=1;align=left;verticalAlign=middle;whiteSpace=wrap;rounded=0;" parent="wgkthjZ_Jnqaw7kV-zS_-65" vertex="1">
          <mxGeometry y="100" width="200" height="30" as="geometry" />
        </mxCell>
        <mxCell id="wgkthjZ_Jnqaw7kV-zS_-70" value="" style="endArrow=block;dashed=1;endFill=0;endSize=12;html=1;rounded=0;" parent="1" source="wgkthjZ_Jnqaw7kV-zS_-22" target="wgkthjZ_Jnqaw7kV-zS_-56" edge="1">
          <mxGeometry width="160" relative="1" as="geometry">
            <mxPoint x="-680" y="450" as="sourcePoint" />
            <mxPoint x="-520" y="450" as="targetPoint" />
          </mxGeometry>
        </mxCell>
        <mxCell id="wgkthjZ_Jnqaw7kV-zS_-74" value="" style="endArrow=block;dashed=1;endFill=0;endSize=12;html=1;rounded=0;exitX=0.618;exitY=-0.033;exitDx=0;exitDy=0;exitPerimeter=0;" parent="1" source="wgkthjZ_Jnqaw7kV-zS_-20" target="wgkthjZ_Jnqaw7kV-zS_-65" edge="1">
          <mxGeometry width="160" relative="1" as="geometry">
            <mxPoint x="-210" y="670" as="sourcePoint" />
            <mxPoint x="-50" y="670" as="targetPoint" />
          </mxGeometry>
        </mxCell>
        <mxCell id="wgkthjZ_Jnqaw7kV-zS_-75" value="" style="endArrow=block;dashed=1;endFill=0;endSize=12;html=1;rounded=0;exitX=1.026;exitY=0.144;exitDx=0;exitDy=0;exitPerimeter=0;" parent="1" source="wgkthjZ_Jnqaw7kV-zS_-53" target="wgkthjZ_Jnqaw7kV-zS_-65" edge="1">
          <mxGeometry width="160" relative="1" as="geometry">
            <mxPoint x="-210" y="670" as="sourcePoint" />
            <mxPoint x="-50" y="670" as="targetPoint" />
          </mxGeometry>
        </mxCell>
        <mxCell id="L8_hsCj7WfJKq58AIytO-2" value="" style="endArrow=block;dashed=1;endFill=0;endSize=12;html=1;rounded=0;exitX=0.5;exitY=1;exitDx=0;exitDy=0;" parent="1" source="wgkthjZ_Jnqaw7kV-zS_-55" edge="1">
          <mxGeometry width="160" relative="1" as="geometry">
            <mxPoint x="-325" y="677" as="sourcePoint" />
            <mxPoint x="-435" y="910" as="targetPoint" />
            <Array as="points" />
          </mxGeometry>
        </mxCell>
        <mxCell id="L8_hsCj7WfJKq58AIytO-3" value="" style="endArrow=block;dashed=1;endFill=0;endSize=12;html=1;rounded=0;exitX=0.5;exitY=1;exitDx=0;exitDy=0;" parent="1" edge="1">
          <mxGeometry width="160" relative="1" as="geometry">
            <mxPoint x="-630" y="780" as="sourcePoint" />
            <mxPoint x="-510" y="910" as="targetPoint" />
            <Array as="points">
              <mxPoint x="-630" y="870" />
              <mxPoint x="-510" y="870" />
            </Array>
          </mxGeometry>
        </mxCell>
        <mxCell id="L8_hsCj7WfJKq58AIytO-4" value="СостояниеЛьда" style="swimlane;fontStyle=0;childLayout=stackLayout;horizontal=1;startSize=30;fillColor=none;horizontalStack=0;resizeParent=1;resizeParentMax=0;resizeLast=0;collapsible=1;marginBottom=0;whiteSpace=wrap;html=1;" parent="1" vertex="1">
          <mxGeometry x="-580" y="909" width="200" height="140" as="geometry" />
        </mxCell>
        <mxCell id="L8_hsCj7WfJKq58AIytO-5" value="+ Сотрудник: строка&lt;div&gt;+ Должность: строка&lt;br&gt;&lt;/div&gt;&lt;div&gt;+&amp;nbsp;&lt;span style=&quot;background-color: initial;&quot;&gt;Стадион: строка&lt;/span&gt;&lt;/div&gt;&lt;div&gt;&lt;span style=&quot;background-color: initial;&quot;&gt;+ СостояниеЛьда: строка&lt;/span&gt;&lt;/div&gt;" style="text;strokeColor=none;fillColor=none;align=left;verticalAlign=top;spacingLeft=4;spacingRight=4;overflow=hidden;rotatable=0;points=[[0,0.5],[1,0.5]];portConstraint=eastwest;whiteSpace=wrap;html=1;" parent="L8_hsCj7WfJKq58AIytO-4" vertex="1">
          <mxGeometry y="30" width="200" height="70" as="geometry" />
        </mxCell>
        <mxCell id="L8_hsCj7WfJKq58AIytO-6" value="" style="endArrow=none;html=1;rounded=0;" parent="L8_hsCj7WfJKq58AIytO-4" edge="1">
          <mxGeometry relative="1" as="geometry">
            <mxPoint y="101" as="sourcePoint" />
            <mxPoint x="200" y="101" as="targetPoint" />
            <Array as="points">
              <mxPoint x="100" y="101" />
            </Array>
          </mxGeometry>
        </mxCell>
        <mxCell id="L8_hsCj7WfJKq58AIytO-7" value="+ Добавить()&lt;div&gt;+ Удалить()&lt;/div&gt;" style="text;html=1;align=left;verticalAlign=middle;whiteSpace=wrap;rounded=0;" parent="L8_hsCj7WfJKq58AIytO-4" vertex="1">
          <mxGeometry y="100" width="200" height="40" as="geometry" />
        </mxCell>
        <mxCell id="L8_hsCj7WfJKq58AIytO-10" value="Константы" style="rounded=0;whiteSpace=wrap;html=1;" parent="1" vertex="1">
          <mxGeometry x="60" y="140" width="150" height="40" as="geometry" />
        </mxCell>
        <mxCell id="L8_hsCj7WfJKq58AIytO-11" value="Справочники" style="rounded=0;whiteSpace=wrap;html=1;" parent="1" vertex="1">
          <mxGeometry x="359" y="160" width="150" height="40" as="geometry" />
        </mxCell>
        <mxCell id="L8_hsCj7WfJKq58AIytO-12" value="Отчёт" style="rounded=0;whiteSpace=wrap;html=1;" parent="1" vertex="1">
          <mxGeometry x="1270" y="109.48000000000002" width="150" height="40" as="geometry" />
        </mxCell>
        <mxCell id="L8_hsCj7WfJKq58AIytO-14" value="Документы" style="rounded=0;whiteSpace=wrap;html=1;" parent="1" vertex="1">
          <mxGeometry x="760" y="170" width="150" height="40" as="geometry" />
        </mxCell>
        <mxCell id="L8_hsCj7WfJKq58AIytO-15" value="Регистры" style="rounded=0;whiteSpace=wrap;html=1;" parent="1" vertex="1">
          <mxGeometry x="990" y="170" width="150" height="40" as="geometry" />
        </mxCell>
        <mxCell id="L8_hsCj7WfJKq58AIytO-16" value="Хоккейный клуб" style="rounded=0;whiteSpace=wrap;html=1;" parent="1" vertex="1">
          <mxGeometry x="600" y="50" width="290" height="40" as="geometry" />
        </mxCell>
        <mxCell id="L8_hsCj7WfJKq58AIytO-17" value="" style="endArrow=block;dashed=1;endFill=0;endSize=12;html=1;rounded=0;exitX=0;exitY=0.5;exitDx=0;exitDy=0;entryX=0.75;entryY=0;entryDx=0;entryDy=0;" parent="1" source="L8_hsCj7WfJKq58AIytO-16" target="L8_hsCj7WfJKq58AIytO-10" edge="1">
          <mxGeometry width="160" relative="1" as="geometry">
            <mxPoint x="730" y="120" as="sourcePoint" />
            <mxPoint x="280" y="110" as="targetPoint" />
            <Array as="points">
              <mxPoint x="263" y="100" />
            </Array>
          </mxGeometry>
        </mxCell>
        <mxCell id="L8_hsCj7WfJKq58AIytO-18" value="" style="endArrow=block;dashed=1;endFill=0;endSize=12;html=1;rounded=0;exitX=0;exitY=0.75;exitDx=0;exitDy=0;entryX=0.665;entryY=-0.006;entryDx=0;entryDy=0;entryPerimeter=0;" parent="1" source="L8_hsCj7WfJKq58AIytO-16" target="L8_hsCj7WfJKq58AIytO-11" edge="1">
          <mxGeometry width="160" relative="1" as="geometry">
            <mxPoint x="730" y="120" as="sourcePoint" />
            <mxPoint x="440" y="140" as="targetPoint" />
            <Array as="points">
              <mxPoint x="460" y="100" />
            </Array>
          </mxGeometry>
        </mxCell>
        <mxCell id="L8_hsCj7WfJKq58AIytO-20" value="" style="endArrow=block;dashed=1;endFill=0;endSize=12;html=1;rounded=0;exitX=1;exitY=0.5;exitDx=0;exitDy=0;entryX=0.25;entryY=0;entryDx=0;entryDy=0;" parent="1" source="L8_hsCj7WfJKq58AIytO-16" target="L8_hsCj7WfJKq58AIytO-12" edge="1">
          <mxGeometry width="160" relative="1" as="geometry">
            <mxPoint x="1367.0600000000004" y="40" as="sourcePoint" />
            <mxPoint x="1450" y="69.48000000000002" as="targetPoint" />
            <Array as="points">
              <mxPoint x="1300" y="70" />
            </Array>
          </mxGeometry>
        </mxCell>
        <mxCell id="L8_hsCj7WfJKq58AIytO-21" value="" style="endArrow=block;dashed=1;endFill=0;endSize=12;html=1;rounded=0;exitX=1;exitY=0.75;exitDx=0;exitDy=0;entryX=0.25;entryY=0;entryDx=0;entryDy=0;" parent="1" source="L8_hsCj7WfJKq58AIytO-16" target="L8_hsCj7WfJKq58AIytO-15" edge="1">
          <mxGeometry width="160" relative="1" as="geometry">
            <mxPoint x="780" y="200" as="sourcePoint" />
            <mxPoint x="940" y="200" as="targetPoint" />
            <Array as="points">
              <mxPoint x="1020" y="100" />
            </Array>
          </mxGeometry>
        </mxCell>
        <mxCell id="L8_hsCj7WfJKq58AIytO-22" value="" style="endArrow=block;dashed=1;endFill=0;endSize=12;html=1;rounded=0;exitX=0.75;exitY=1;exitDx=0;exitDy=0;entryX=0.25;entryY=0;entryDx=0;entryDy=0;" parent="1" source="L8_hsCj7WfJKq58AIytO-16" target="L8_hsCj7WfJKq58AIytO-14" edge="1">
          <mxGeometry width="160" relative="1" as="geometry">
            <mxPoint x="780" y="200" as="sourcePoint" />
            <mxPoint x="940" y="200" as="targetPoint" />
            <Array as="points">
              <mxPoint x="790" y="130" />
            </Array>
          </mxGeometry>
        </mxCell>
        <mxCell id="L8_hsCj7WfJKq58AIytO-23" value="Константы.ГенеральныйДиректор" style="rounded=0;whiteSpace=wrap;html=1;" parent="1" vertex="1">
          <mxGeometry x="50" y="470" width="210" height="40" as="geometry" />
        </mxCell>
        <mxCell id="L8_hsCj7WfJKq58AIytO-24" value="" style="endArrow=block;dashed=1;endFill=0;endSize=12;html=1;rounded=0;entryX=0.576;entryY=0.008;entryDx=0;entryDy=0;exitX=0.733;exitY=1.08;exitDx=0;exitDy=0;entryPerimeter=0;exitPerimeter=0;" parent="1" source="L8_hsCj7WfJKq58AIytO-10" target="L8_hsCj7WfJKq58AIytO-23" edge="1">
          <mxGeometry width="160" relative="1" as="geometry">
            <mxPoint x="250" y="210" as="sourcePoint" />
            <mxPoint x="350" y="200" as="targetPoint" />
            <Array as="points">
              <mxPoint x="210" y="260" />
              <mxPoint x="220" y="330" />
              <mxPoint x="230" y="390" />
              <mxPoint x="210" y="430" />
            </Array>
          </mxGeometry>
        </mxCell>
        <mxCell id="L8_hsCj7WfJKq58AIytO-25" value="Документ.ЗаработнаяПлата_сотрудников" style="rounded=0;whiteSpace=wrap;html=1;" parent="1" vertex="1">
          <mxGeometry x="650" y="440" width="260" height="40" as="geometry" />
        </mxCell>
        <mxCell id="L8_hsCj7WfJKq58AIytO-28" value="Отчёт.Расписание" style="rounded=0;whiteSpace=wrap;html=1;" parent="1" vertex="1">
          <mxGeometry x="1350" y="220.00000000000003" width="260" height="40" as="geometry" />
        </mxCell>
        <mxCell id="L8_hsCj7WfJKq58AIytO-30" value="Отчёт.ИзменениеУровняИгрока" style="rounded=0;whiteSpace=wrap;html=1;" parent="1" vertex="1">
          <mxGeometry x="1180" y="280" width="260" height="40" as="geometry" />
        </mxCell>
        <mxCell id="L8_hsCj7WfJKq58AIytO-31" value="Документ.Контракты_игроков" style="rounded=0;whiteSpace=wrap;html=1;" parent="1" vertex="1">
          <mxGeometry x="780" y="510" width="260" height="40" as="geometry" />
        </mxCell>
        <mxCell id="L8_hsCj7WfJKq58AIytO-34" value="Справочник.СотрудникиКоманды" style="rounded=0;whiteSpace=wrap;html=1;" parent="1" vertex="1">
          <mxGeometry x="440" y="260" width="200" height="40" as="geometry" />
        </mxCell>
        <mxCell id="L8_hsCj7WfJKq58AIytO-35" value="" style="endArrow=block;dashed=1;endFill=0;endSize=12;html=1;rounded=0;exitX=0.5;exitY=1;exitDx=0;exitDy=0;entryX=0.5;entryY=0;entryDx=0;entryDy=0;" parent="1" source="L8_hsCj7WfJKq58AIytO-11" target="L8_hsCj7WfJKq58AIytO-34" edge="1">
          <mxGeometry width="160" relative="1" as="geometry">
            <mxPoint x="290" y="230" as="sourcePoint" />
            <mxPoint x="450" y="230" as="targetPoint" />
            <Array as="points">
              <mxPoint x="540" y="220" />
            </Array>
          </mxGeometry>
        </mxCell>
        <mxCell id="L8_hsCj7WfJKq58AIytO-36" value="Справочник.СотрудникиСтадиона" style="rounded=0;whiteSpace=wrap;html=1;" parent="1" vertex="1">
          <mxGeometry x="240" y="400" width="200" height="40" as="geometry" />
        </mxCell>
        <mxCell id="L8_hsCj7WfJKq58AIytO-38" value="Справочник.Стадион" style="rounded=0;whiteSpace=wrap;html=1;" parent="1" vertex="1">
          <mxGeometry x="230" y="260" width="150" height="40" as="geometry" />
        </mxCell>
        <mxCell id="L8_hsCj7WfJKq58AIytO-40" value="Справочник.Игроки" style="rounded=0;whiteSpace=wrap;html=1;" parent="1" vertex="1">
          <mxGeometry x="450" y="340" width="150" height="40" as="geometry" />
        </mxCell>
        <mxCell id="L8_hsCj7WfJKq58AIytO-42" value="Генеральный менеджер&lt;div&gt;&lt;br&gt;&lt;/div&gt;" style="shape=umlActor;verticalLabelPosition=bottom;verticalAlign=top;html=1;outlineConnect=0;" parent="1" vertex="1">
          <mxGeometry x="2080" y="335" width="73" height="146" as="geometry" />
        </mxCell>
        <mxCell id="L8_hsCj7WfJKq58AIytO-43" value="Сотрудники команды&lt;div&gt;&lt;br&gt;&lt;/div&gt;" style="shape=umlActor;verticalLabelPosition=bottom;verticalAlign=top;html=1;outlineConnect=0;" parent="1" vertex="1">
          <mxGeometry x="1830" y="542" width="73" height="146" as="geometry" />
        </mxCell>
        <mxCell id="L8_hsCj7WfJKq58AIytO-44" value="Сотрудники стадиона&lt;div&gt;&lt;div&gt;&lt;br&gt;&lt;/div&gt;&lt;/div&gt;" style="shape=umlActor;verticalLabelPosition=bottom;verticalAlign=top;html=1;outlineConnect=0;" parent="1" vertex="1">
          <mxGeometry x="2300" y="522" width="73" height="146" as="geometry" />
        </mxCell>
        <mxCell id="L8_hsCj7WfJKq58AIytO-45" value="Учёт инвентаря команды" style="ellipse;whiteSpace=wrap;html=1;" parent="1" vertex="1">
          <mxGeometry x="1690" y="765" width="120" height="80" as="geometry" />
        </mxCell>
        <mxCell id="L8_hsCj7WfJKq58AIytO-46" value="Учёт расписания игр и тренировок" style="ellipse;whiteSpace=wrap;html=1;" parent="1" vertex="1">
          <mxGeometry x="1840" y="810" width="150" height="90" as="geometry" />
        </mxCell>
        <mxCell id="L8_hsCj7WfJKq58AIytO-47" value="" style="endArrow=classic;html=1;rounded=0;entryX=0.5;entryY=0;entryDx=0;entryDy=0;entryPerimeter=0;" parent="1" source="L8_hsCj7WfJKq58AIytO-42" target="L8_hsCj7WfJKq58AIytO-43" edge="1">
          <mxGeometry width="50" height="50" relative="1" as="geometry">
            <mxPoint x="2010" y="405" as="sourcePoint" />
            <mxPoint x="2100" y="415" as="targetPoint" />
            <Array as="points">
              <mxPoint x="1940" y="415" />
            </Array>
          </mxGeometry>
        </mxCell>
        <mxCell id="L8_hsCj7WfJKq58AIytO-48" value="" style="endArrow=none;html=1;rounded=0;exitX=0.5;exitY=0;exitDx=0;exitDy=0;" parent="1" source="L8_hsCj7WfJKq58AIytO-45" target="L8_hsCj7WfJKq58AIytO-43" edge="1">
          <mxGeometry width="50" height="50" relative="1" as="geometry">
            <mxPoint x="2040" y="805" as="sourcePoint" />
            <mxPoint x="1800" y="615" as="targetPoint" />
            <Array as="points">
              <mxPoint x="1760" y="615" />
            </Array>
          </mxGeometry>
        </mxCell>
        <mxCell id="L8_hsCj7WfJKq58AIytO-49" value="" style="endArrow=none;html=1;rounded=0;exitX=0.5;exitY=0;exitDx=0;exitDy=0;" parent="1" source="L8_hsCj7WfJKq58AIytO-46" target="L8_hsCj7WfJKq58AIytO-43" edge="1">
          <mxGeometry width="50" height="50" relative="1" as="geometry">
            <mxPoint x="2040" y="805" as="sourcePoint" />
            <mxPoint x="1990" y="605" as="targetPoint" />
            <Array as="points">
              <mxPoint x="1950" y="665" />
            </Array>
          </mxGeometry>
        </mxCell>
        <mxCell id="L8_hsCj7WfJKq58AIytO-50" value="" style="endArrow=none;html=1;rounded=0;" parent="1" source="L8_hsCj7WfJKq58AIytO-42" edge="1">
          <mxGeometry width="50" height="50" relative="1" as="geometry">
            <mxPoint x="2150" y="505" as="sourcePoint" />
            <mxPoint x="2050" y="645" as="targetPoint" />
            <Array as="points">
              <mxPoint x="2020" y="465" />
            </Array>
          </mxGeometry>
        </mxCell>
        <mxCell id="L8_hsCj7WfJKq58AIytO-51" value="Учёт контрактов игроков" style="ellipse;whiteSpace=wrap;html=1;" parent="1" vertex="1">
          <mxGeometry x="1990" y="645" width="120" height="80" as="geometry" />
        </mxCell>
        <mxCell id="L8_hsCj7WfJKq58AIytO-52" value="Учёт финансов" style="ellipse;whiteSpace=wrap;html=1;" parent="1" vertex="1">
          <mxGeometry x="2090" y="740" width="120" height="80" as="geometry" />
        </mxCell>
        <mxCell id="L8_hsCj7WfJKq58AIytO-53" value="" style="endArrow=none;html=1;rounded=0;exitX=0.5;exitY=0;exitDx=0;exitDy=0;" parent="1" source="L8_hsCj7WfJKq58AIytO-52" target="L8_hsCj7WfJKq58AIytO-42" edge="1">
          <mxGeometry width="50" height="50" relative="1" as="geometry">
            <mxPoint x="2170" y="720" as="sourcePoint" />
            <mxPoint x="2210" y="430" as="targetPoint" />
            <Array as="points">
              <mxPoint x="2200" y="580" />
              <mxPoint x="2180" y="450" />
            </Array>
          </mxGeometry>
        </mxCell>
        <mxCell id="L8_hsCj7WfJKq58AIytO-54" value="" style="endArrow=classic;html=1;rounded=0;entryX=0.5;entryY=0;entryDx=0;entryDy=0;entryPerimeter=0;" parent="1" source="L8_hsCj7WfJKq58AIytO-42" target="L8_hsCj7WfJKq58AIytO-44" edge="1">
          <mxGeometry width="50" height="50" relative="1" as="geometry">
            <mxPoint x="2200" y="520" as="sourcePoint" />
            <mxPoint x="2250" y="470" as="targetPoint" />
            <Array as="points">
              <mxPoint x="2220" y="410" />
              <mxPoint x="2310" y="430" />
            </Array>
          </mxGeometry>
        </mxCell>
        <mxCell id="L8_hsCj7WfJKq58AIytO-55" value="" style="endArrow=none;html=1;rounded=0;exitX=0.5;exitY=0;exitDx=0;exitDy=0;" parent="1" source="L8_hsCj7WfJKq58AIytO-56" target="L8_hsCj7WfJKq58AIytO-44" edge="1">
          <mxGeometry width="50" height="50" relative="1" as="geometry">
            <mxPoint x="2410" y="760" as="sourcePoint" />
            <mxPoint x="2400" y="610" as="targetPoint" />
            <Array as="points">
              <mxPoint x="2420" y="640" />
            </Array>
          </mxGeometry>
        </mxCell>
        <mxCell id="L8_hsCj7WfJKq58AIytO-56" value="Учёт состояния ледового дворца" style="ellipse;whiteSpace=wrap;html=1;" parent="1" vertex="1">
          <mxGeometry x="2330" y="775" width="120" height="80" as="geometry" />
        </mxCell>
        <mxCell id="L8_hsCj7WfJKq58AIytO-57" value="Документ.СостояниеЛьда" style="rounded=0;whiteSpace=wrap;html=1;" parent="1" vertex="1">
          <mxGeometry x="710" y="270" width="153" height="40" as="geometry" />
        </mxCell>
        <mxCell id="n1xS2hXd_e91QVrV2ye1-2" value="Константы.ГенеральныйМенеджер" style="rounded=0;whiteSpace=wrap;html=1;" vertex="1" parent="1">
          <mxGeometry x="10" y="360" width="200" height="40" as="geometry" />
        </mxCell>
        <mxCell id="n1xS2hXd_e91QVrV2ye1-3" value="" style="endArrow=block;dashed=1;endFill=0;endSize=12;html=1;rounded=0;entryX=0.5;entryY=0;entryDx=0;entryDy=0;exitX=0.5;exitY=1;exitDx=0;exitDy=0;" edge="1" parent="1" source="L8_hsCj7WfJKq58AIytO-10" target="n1xS2hXd_e91QVrV2ye1-2">
          <mxGeometry width="160" relative="1" as="geometry">
            <mxPoint x="200" y="240" as="sourcePoint" />
            <mxPoint x="101" y="370" as="targetPoint" />
            <Array as="points">
              <mxPoint x="110" y="240" />
              <mxPoint x="110" y="290" />
            </Array>
          </mxGeometry>
        </mxCell>
        <mxCell id="n1xS2hXd_e91QVrV2ye1-7" value="" style="endArrow=block;dashed=1;endFill=0;endSize=12;html=1;rounded=0;entryX=0.5;entryY=0;entryDx=0;entryDy=0;exitX=0.25;exitY=1;exitDx=0;exitDy=0;" edge="1" parent="1" source="L8_hsCj7WfJKq58AIytO-11" target="L8_hsCj7WfJKq58AIytO-38">
          <mxGeometry width="160" relative="1" as="geometry">
            <mxPoint x="314" y="126.5" as="sourcePoint" />
            <mxPoint x="255" y="233.5" as="targetPoint" />
            <Array as="points">
              <mxPoint x="300" y="220" />
            </Array>
          </mxGeometry>
        </mxCell>
        <mxCell id="n1xS2hXd_e91QVrV2ye1-10" value="" style="endArrow=block;dashed=1;endFill=0;endSize=12;html=1;rounded=0;entryX=0.5;entryY=0;entryDx=0;entryDy=0;exitX=0.25;exitY=1;exitDx=0;exitDy=0;" edge="1" parent="1" source="L8_hsCj7WfJKq58AIytO-11" target="L8_hsCj7WfJKq58AIytO-36">
          <mxGeometry width="160" relative="1" as="geometry">
            <mxPoint x="418" y="290" as="sourcePoint" />
            <mxPoint x="359" y="397" as="targetPoint" />
            <Array as="points">
              <mxPoint x="390" y="350" />
            </Array>
          </mxGeometry>
        </mxCell>
        <mxCell id="n1xS2hXd_e91QVrV2ye1-11" value="" style="endArrow=block;dashed=1;endFill=0;endSize=12;html=1;rounded=0;entryX=0;entryY=0.5;entryDx=0;entryDy=0;exitX=0.5;exitY=1;exitDx=0;exitDy=0;" edge="1" parent="1" source="L8_hsCj7WfJKq58AIytO-11" target="L8_hsCj7WfJKq58AIytO-40">
          <mxGeometry width="160" relative="1" as="geometry">
            <mxPoint x="407" y="210" as="sourcePoint" />
            <mxPoint x="350" y="410" as="targetPoint" />
            <Array as="points">
              <mxPoint x="420" y="360" />
            </Array>
          </mxGeometry>
        </mxCell>
        <mxCell id="n1xS2hXd_e91QVrV2ye1-14" value="" style="endArrow=block;dashed=1;endFill=0;endSize=12;html=1;rounded=0;exitX=0.75;exitY=1;exitDx=0;exitDy=0;entryX=0.5;entryY=0;entryDx=0;entryDy=0;" edge="1" parent="1" source="L8_hsCj7WfJKq58AIytO-12" target="L8_hsCj7WfJKq58AIytO-28">
          <mxGeometry width="160" relative="1" as="geometry">
            <mxPoint x="1330" y="160.00000000000003" as="sourcePoint" />
            <mxPoint x="1745.5" y="219.52" as="targetPoint" />
            <Array as="points">
              <mxPoint x="1480" y="180" />
            </Array>
          </mxGeometry>
        </mxCell>
        <mxCell id="n1xS2hXd_e91QVrV2ye1-15" value="" style="endArrow=block;dashed=1;endFill=0;endSize=12;html=1;rounded=0;exitX=0.25;exitY=1;exitDx=0;exitDy=0;entryX=0.5;entryY=0;entryDx=0;entryDy=0;" edge="1" parent="1" source="L8_hsCj7WfJKq58AIytO-12" target="L8_hsCj7WfJKq58AIytO-30">
          <mxGeometry width="160" relative="1" as="geometry">
            <mxPoint x="1190" y="210" as="sourcePoint" />
            <mxPoint x="1287" y="281" as="targetPoint" />
            <Array as="points" />
          </mxGeometry>
        </mxCell>
        <mxCell id="n1xS2hXd_e91QVrV2ye1-16" value="РегистрыСведений.УровеньИгрока" style="rounded=0;whiteSpace=wrap;html=1;" vertex="1" parent="1">
          <mxGeometry x="1000" y="370" width="260" height="40" as="geometry" />
        </mxCell>
        <mxCell id="n1xS2hXd_e91QVrV2ye1-17" value="" style="endArrow=block;dashed=1;endFill=0;endSize=12;html=1;rounded=0;exitX=0.5;exitY=1;exitDx=0;exitDy=0;entryX=0.5;entryY=0;entryDx=0;entryDy=0;" edge="1" parent="1" source="L8_hsCj7WfJKq58AIytO-15" target="n1xS2hXd_e91QVrV2ye1-16">
          <mxGeometry width="160" relative="1" as="geometry">
            <mxPoint x="996" y="290" as="sourcePoint" />
            <mxPoint x="1134" y="380" as="targetPoint" />
            <Array as="points">
              <mxPoint x="1126" y="310" />
            </Array>
          </mxGeometry>
        </mxCell>
        <mxCell id="n1xS2hXd_e91QVrV2ye1-18" value="" style="endArrow=block;dashed=1;endFill=0;endSize=12;html=1;rounded=0;exitX=0.25;exitY=1;exitDx=0;exitDy=0;entryX=0.5;entryY=0;entryDx=0;entryDy=0;" edge="1" parent="1" source="L8_hsCj7WfJKq58AIytO-14" target="L8_hsCj7WfJKq58AIytO-57">
          <mxGeometry width="160" relative="1" as="geometry">
            <mxPoint x="778" y="210" as="sourcePoint" />
            <mxPoint x="758" y="290" as="targetPoint" />
            <Array as="points">
              <mxPoint x="787" y="240" />
            </Array>
          </mxGeometry>
        </mxCell>
        <mxCell id="n1xS2hXd_e91QVrV2ye1-19" value="" style="endArrow=block;dashed=1;endFill=0;endSize=12;html=1;rounded=0;exitX=0.198;exitY=1.051;exitDx=0;exitDy=0;entryX=0.25;entryY=0;entryDx=0;entryDy=0;exitPerimeter=0;" edge="1" parent="1" source="L8_hsCj7WfJKq58AIytO-14" target="L8_hsCj7WfJKq58AIytO-25">
          <mxGeometry width="160" relative="1" as="geometry">
            <mxPoint x="808" y="220" as="sourcePoint" />
            <mxPoint x="797" y="280" as="targetPoint" />
            <Array as="points">
              <mxPoint x="700" y="260" />
              <mxPoint x="680" y="360" />
            </Array>
          </mxGeometry>
        </mxCell>
        <mxCell id="n1xS2hXd_e91QVrV2ye1-20" value="" style="endArrow=block;dashed=1;endFill=0;endSize=12;html=1;rounded=0;exitX=0.75;exitY=1;exitDx=0;exitDy=0;entryX=0.75;entryY=0;entryDx=0;entryDy=0;" edge="1" parent="1" source="L8_hsCj7WfJKq58AIytO-14" target="L8_hsCj7WfJKq58AIytO-31">
          <mxGeometry width="160" relative="1" as="geometry">
            <mxPoint x="1030" y="276" as="sourcePoint" />
            <mxPoint x="955" y="504" as="targetPoint" />
            <Array as="points">
              <mxPoint x="960" y="300" />
            </Array>
          </mxGeometry>
        </mxCell>
        <mxCell id="n1xS2hXd_e91QVrV2ye1-21" value="Документ.Инвентаризация" style="rounded=0;whiteSpace=wrap;html=1;" vertex="1" parent="1">
          <mxGeometry x="580" y="560" width="260" height="40" as="geometry" />
        </mxCell>
        <mxCell id="n1xS2hXd_e91QVrV2ye1-22" value="" style="endArrow=block;dashed=1;endFill=0;endSize=12;html=1;rounded=0;entryX=0.25;entryY=0;entryDx=0;entryDy=0;exitX=0;exitY=0.5;exitDx=0;exitDy=0;" edge="1" parent="1" source="L8_hsCj7WfJKq58AIytO-14" target="n1xS2hXd_e91QVrV2ye1-21">
          <mxGeometry width="160" relative="1" as="geometry">
            <mxPoint x="700" y="200" as="sourcePoint" />
            <mxPoint x="645" y="550" as="targetPoint" />
            <Array as="points">
              <mxPoint x="700" y="210" />
              <mxPoint x="610" y="470" />
            </Array>
          </mxGeometry>
        </mxCell>
        <mxCell id="n1xS2hXd_e91QVrV2ye1-23" value="Документ.Расписание" style="rounded=0;whiteSpace=wrap;html=1;" vertex="1" parent="1">
          <mxGeometry x="737" y="350" width="153" height="40" as="geometry" />
        </mxCell>
        <mxCell id="n1xS2hXd_e91QVrV2ye1-24" value="" style="endArrow=block;dashed=1;endFill=0;endSize=12;html=1;rounded=0;exitX=0.75;exitY=1;exitDx=0;exitDy=0;entryX=0.75;entryY=0;entryDx=0;entryDy=0;" edge="1" parent="1" source="L8_hsCj7WfJKq58AIytO-14" target="n1xS2hXd_e91QVrV2ye1-23">
          <mxGeometry width="160" relative="1" as="geometry">
            <mxPoint x="808" y="220" as="sourcePoint" />
            <mxPoint x="797" y="280" as="targetPoint" />
            <Array as="points">
              <mxPoint x="880" y="260" />
              <mxPoint x="880" y="310" />
            </Array>
          </mxGeometry>
        </mxCell>
      </root>
    </mxGraphModel>
  </diagram>
</mxfile>
